<svg width="26" height="26" viewBox="0 0 26 26" fill="none" xmlns="http://www.w3.org/2000/svg">
<path d="M25.3134 6.95195L13.8287 1.81289C13.2715 1.56355 12.6623 1.56355 12.105 1.81289L0.652031 6.95195C0.261544 7.12968 0 7.59687 0 8.125C0 8.65312 0.261544 9.12285 0.652031 9.29753L3.09034 10.3898C2.60731 11.1922 2.26728 12.1245 2.093 13.1295C1.62703 13.3758 1.3 13.9547 1.3 14.625C1.3 15.1304 1.49557 15.5639 1.78506 15.862L0.776344 23.4284C0.710125 23.923 1.01562 24.375 1.41741 24.375H3.78259C4.18425 24.375 4.48987 23.9241 4.42366 23.4289L3.41494 15.8625C3.70459 15.5644 3.9 15.0871 3.9 14.625C3.9 14.1025 3.68981 13.6586 3.38325 13.361C3.55347 12.4704 3.90213 11.6486 4.39644 10.9728L12.1396 14.4376C12.6968 14.6869 13.306 14.6869 13.8633 14.4376L25.348 9.29855C25.74 9.12031 26 8.65312 26 8.125C26 7.59687 25.74 7.12968 25.3134 6.95195ZM14.2634 15.9656C13.8816 16.1535 13.4428 16.25 13 16.25C12.5569 16.2502 12.1171 16.1547 11.7 15.9679L5.80125 13.3301L5.2 20.5816C5.2 22.6789 8.65719 24.375 13 24.375C17.2697 24.375 20.8 22.6789 20.8 20.5832L20.1996 13.3265L14.2634 15.9656Z" fill="black"/>
</svg>
