<svg width="28" height="28" viewBox="0 0 28 28" fill="none" xmlns="http://www.w3.org/2000/svg">
<path d="M3.04382 7.31033C3.25732 7.02333 3.53848 6.63483 3.76365 6.35717C4.43798 5.59183 4.52548 5.4915 5.13915 4.92567C5.32115 4.77633 5.53698 4.59667 5.74815 4.4275C4.19065 5.74583 3.99232 7.20533 5.42148 8.10717C5.41915 8.10717 5.41915 8.10717 5.41915 8.1095C7.41765 9.3135 11.7973 9.05333 15.253 7.511C18.6001 6.01767 19.8356 3.8815 18.1836 2.61217C16.7335 2.34033 15.0045 2.30883 13.1751 2.55383L12.985 2.24L13.1425 1.71967C14.2181 1.62283 15.2401 1.64617 16.1221 1.79667C16.3356 1.83283 16.6168 1.89467 16.8268 1.939C17.2328 2.03817 17.4533 2.09767 17.7181 2.18283C17.9888 2.26333 18.2198 2.34383 18.6223 2.49317C19.0166 2.64833 19.187 2.71833 19.5031 2.87583C19.8572 3.03738 20.2012 3.2201 20.5333 3.423C23.1653 5.0785 21.5285 8.099 16.884 10.1687C12.2523 12.2313 6.35015 12.5557 3.70532 10.92C3.70415 10.9177 3.70065 10.9153 3.69365 10.913H3.69832C2.25398 9.99833 2.10232 8.67067 3.04382 7.31033ZM15.0943 18.8837L15.057 17.024L13.7351 15.554C9.36832 16.5433 5.07615 16.331 2.68915 14.9252C2.68098 14.9158 2.66115 14.9065 2.65298 14.8972C1.30198 14.0653 0.968316 12.992 1.06982 11.8253C0.75365 13.5322 0.727983 14.1482 0.773483 15.6088C0.829483 16.5235 1.35798 17.367 2.42082 18.032L2.42898 18.0413C4.97348 19.6233 10.2748 19.9663 15.0943 18.8837ZM20.6068 21.0128C14.4433 23.485 6.72932 23.6308 3.37865 21.343C3.7405 22.2273 4.23286 23.0523 4.83932 23.7907C7.91465 25.8907 14.9952 25.7565 20.65 23.4873C23.9598 22.1608 26.0482 20.3957 26.5965 18.7413L26.7505 18.2432C27.1157 16.9808 27.1845 15.9297 27.2428 14.994C27.1763 17.0252 24.7835 19.3352 20.6068 21.0128ZM7.00115 25.774C7.19482 25.9583 7.80382 26.7062 10.8896 27.5322C11.7238 27.7165 13.8238 28.308 17.703 27.4482L17.7263 27.0947L17.4195 26.614C13.8203 27.4657 9.82215 27.181 7.00115 25.774ZM15.9075 11.0635L19.1846 13.5473C19.1846 13.5473 19.8858 14.0525 19.2243 14.4072C18.5651 14.7583 16.8723 15.6182 16.8723 15.6182L15.2005 14.994L14.3616 15.3673L15.841 16.6518L15.8526 18.6503L16.7218 18.2642L17.2981 16.576C17.2981 16.576 19.068 15.8947 19.7703 15.638C20.4761 15.3872 20.3816 16.2458 20.3816 16.2458L20.034 20.342L21.189 19.8287L23.0906 14.3022C23.0906 14.3022 24.0986 13.8122 24.808 13.3817C25.5161 12.9512 25.7588 12.2372 25.7588 12.2372C25.7588 12.2372 25.0681 11.9397 24.2725 12.1788C23.4768 12.4157 22.4396 12.838 22.4396 12.838L17.059 10.5525L15.9075 11.0635ZM8.97398 3.20483L11.1988 4.977L11.8066 4.886L10.5956 3.29583C10.5956 3.29583 10.332 2.96683 10.6866 2.88867C11.0436 2.80933 11.9466 2.625 11.9466 2.625L12.6256 3.1675L13.083 3.09983L12.565 2.27617L12.838 1.36267L12.3958 1.42683L11.872 2.12217C11.872 2.12217 10.9526 2.2085 10.591 2.23883C10.227 2.26683 10.3833 1.876 10.3833 1.876L11.081 0L10.4696 0.0898333L8.85965 2.43367C8.85965 2.43367 8.32298 2.53167 7.93448 2.6425C7.54482 2.75217 7.33948 3.05317 7.33948 3.05317C7.33948 3.05317 7.62532 3.28417 8.02782 3.276C8.43382 3.26783 8.97398 3.20483 8.97398 3.20483ZM19.9698 25.9758L18.5301 25.2233L18.1988 25.3388L19.0516 26.1018C19.0516 26.1018 19.2337 26.257 19.0423 26.3398C18.851 26.4215 18.3633 26.6222 18.3633 26.6222L17.9608 26.4425L17.7216 26.5288L18.0565 26.8858L18.0238 27.4073L18.2735 27.321L18.4601 26.8975C18.4601 26.8975 18.9665 26.747 19.1683 26.6933C19.369 26.6385 19.3235 26.8742 19.3235 26.8742L19.1333 28L19.4658 27.8845L20.118 26.3958C20.118 26.3958 20.4061 26.2827 20.6126 26.1788C20.8191 26.075 20.9008 25.8837 20.9008 25.8837C20.9008 25.8837 20.7176 25.7833 20.4913 25.8335C20.2638 25.8813 19.9698 25.9758 19.9698 25.9758Z" fill="black"/>
</svg>
